<svg width="24" height="24" viewBox="0 0 34 34" fill="none" xmlns="http://www.w3.org/2000/svg">
<path d="M15.1406 7.10547V8.16797H23.5078H31.875V7.10547V6.04297H23.5078H15.1406V7.10547Z" fill="white"/>
<path d="M4.86602 8.91289L2.13672 11.7219L2.87383 12.4656L3.61094 13.216L5.0918 11.702L6.56602 10.1945V19.0797L6.57266 27.9648L7.62188 27.9449L8.66445 27.925L8.69766 19.0664L8.73086 10.2078L10.152 11.6754C10.9355 12.4855 11.6063 13.1496 11.6461 13.1496C11.6859 13.1496 12.0379 12.8309 12.4297 12.4324L13.1336 11.7219L10.4176 8.93281C8.93008 7.39883 7.68164 6.13711 7.64844 6.12383C7.61523 6.11719 6.3668 7.37227 4.86602 8.91289Z" fill="white"/>
<path d="M15.1406 13.5469V14.6094H21.8809H28.6211V13.5469V12.4844H21.8809H15.1406V13.5469Z" fill="white"/>
<path d="M15.1406 19.9883V21.0508H20.2539H25.3738L25.3539 20.0016L25.334 18.959L20.2406 18.9391L15.1406 18.9258V19.9883Z" fill="white"/>
<path d="M15.1406 26.4297V27.4922H18.5938H22.0469V26.4297V25.3672H18.5938H15.1406V26.4297Z" fill="white"/>
</svg>
