<svg width="24" height="24" viewBox="0 0 34 34" fill="none" xmlns="http://www.w3.org/2000/svg">
<path d="M6.56602 14.9234V23.8086L5.0918 22.3012L3.61094 20.7871L2.87383 21.5375L2.13672 22.2812L4.84609 25.0703C6.33359 26.6043 7.58867 27.8594 7.62852 27.8594C7.675 27.8594 8.92344 26.6043 10.4176 25.0703L13.1336 22.2812L12.4297 21.5641C12.0379 21.1723 11.6859 20.8535 11.6461 20.8535C11.6063 20.8535 10.9355 21.5176 10.152 22.3277L8.73086 23.7953L8.69766 14.9367L8.66445 6.07812L7.62188 6.0582L6.57266 6.03828L6.56602 14.9234Z" fill="white"/>
<path d="M15.1406 7.10937V8.17188H23.5078H31.875V7.10937V6.04687H23.5078H15.1406V7.10937Z" fill="white"/>
<path d="M15.1406 13.5469V14.6094H21.8809H28.6211V13.5469V12.4844H21.8809H15.1406V13.5469Z" fill="white"/>
<path d="M15.1406 19.9883V21.0508H20.2539H25.3738L25.3539 20.0016L25.334 18.959L20.2406 18.9391L15.1406 18.9258V19.9883Z" fill="white"/>
<path d="M15.1406 26.4297V27.4922H18.5938H22.0469V26.4297V25.3672H18.5938H15.1406V26.4297Z" fill="white"/>
</svg>
