<svg width="16" height="17" viewBox="0 0 16 17" fill="none" xmlns="http://www.w3.org/2000/svg">
<rect x="1.46484" y="2" width="12.5088" height="13" rx="3.5" fill="#FEFEFE" stroke="#E5E5E5"/>
<path d="M8.26275 5.3125C8.26275 5.16332 8.20556 5.02024 8.10377 4.91475C8.00199 4.80926 7.86393 4.75 7.71998 4.75C7.57603 4.75 7.43798 4.80926 7.33619 4.91475C7.2344 5.02024 7.17722 5.16332 7.17722 5.3125V7.9375H4.64433C4.50038 7.9375 4.36232 7.99676 4.26053 8.10225C4.15875 8.20774 4.10156 8.35082 4.10156 8.5C4.10156 8.64918 4.15875 8.79226 4.26053 8.89775C4.36232 9.00324 4.50038 9.0625 4.64433 9.0625H7.17722V11.6875C7.17722 11.8367 7.2344 11.9798 7.33619 12.0852C7.43798 12.1907 7.57603 12.25 7.71998 12.25C7.86393 12.25 8.00199 12.1907 8.10377 12.0852C8.20556 11.9798 8.26275 11.8367 8.26275 11.6875V9.0625H10.7956C10.9396 9.0625 11.0776 9.00324 11.1794 8.89775C11.2812 8.79226 11.3384 8.64918 11.3384 8.5C11.3384 8.35082 11.2812 8.20774 11.1794 8.10225C11.0776 7.99676 10.9396 7.9375 10.7956 7.9375H8.26275V5.3125Z" fill="#777777"/>
</svg>
