<svg width="16" height="17" viewBox="0 0 16 17" fill="none" xmlns="http://www.w3.org/2000/svg">
<path d="M4.75 13.75V7.75H12.25V13.75H4.75Z" fill="#323232"/>
<path d="M9.46975 2.5H5.5C5.10218 2.5 4.72064 2.65804 4.43934 2.93934C4.15804 3.22064 4 3.60218 4 4V13C4 13.3978 4.15804 13.7794 4.43934 14.0607C4.72064 14.342 5.10218 14.5 5.5 14.5H11.5C11.8978 14.5 12.2794 14.342 12.5607 14.0607C12.842 13.7794 13 13.3978 13 13V6.03025C13 5.83135 12.9209 5.64062 12.7802 5.5L10 2.71975C9.85938 2.57909 9.66865 2.50004 9.46975 2.5ZM9.625 5.125V3.625L11.875 5.875H10.375C10.1761 5.875 9.98532 5.79598 9.84467 5.65533C9.70402 5.51468 9.625 5.32391 9.625 5.125ZM4.75 9.25H12.25V10H10V11.5H12.25V12.25H10V13.75H9.25V12.25H7V13.75H6.25V12.25H4.75V11.5H6.25V10H4.75V9.25Z" fill="#323232"/>
</svg>
