<svg width="16" height="16" viewBox="0 0 16 16" fill="none" xmlns="http://www.w3.org/2000/svg">
<path d="M3.75 13.25V7.25H11.25V13.25H3.75Z" fill="#FEFEFE"/>
<path d="M8.46975 2H4.5C4.10218 2 3.72064 2.15804 3.43934 2.43934C3.15804 2.72064 3 3.10218 3 3.5V12.5C3 12.8978 3.15804 13.2794 3.43934 13.5607C3.72064 13.842 4.10218 14 4.5 14H10.5C10.8978 14 11.2794 13.842 11.5607 13.5607C11.842 13.2794 12 12.8978 12 12.5V5.53025C12 5.33135 11.9209 5.14062 11.7802 5L9 2.21975C8.85938 2.07909 8.66865 2.00004 8.46975 2ZM8.625 4.625V3.125L10.875 5.375H9.375C9.17609 5.375 8.98532 5.29598 8.84467 5.15533C8.70402 5.01468 8.625 4.82391 8.625 4.625ZM3.75 8.75H11.25V9.5H9V11H11.25V11.75H9V13.25H8.25V11.75H6V13.25H5.25V11.75H3.75V11H5.25V9.5H3.75V8.75Z" fill="#FEFEFE"/>
</svg>
