<svg width="16" height="17" viewBox="0 0 16 17" fill="none" xmlns="http://www.w3.org/2000/svg">
<path d="M14.2174 7.16667C14.2647 7.16667 14.3115 7.17674 14.3546 7.19623C14.3977 7.21571 14.4362 7.24414 14.4675 7.27965C14.4987 7.31516 14.5221 7.35692 14.536 7.40215C14.5499 7.44738 14.554 7.49506 14.548 7.542L14.5367 7.59533L12.61 14.0247C12.5727 14.1492 12.4998 14.26 12.4004 14.3437C12.3009 14.4273 12.1791 14.48 12.05 14.4953L11.972 14.5H2.66536C2.40503 14.5002 2.15034 14.4242 1.9327 14.2813C1.91459 14.2315 1.90864 14.178 1.91536 14.1253L1.9267 14.0707L3.85603 7.642C3.89329 7.5176 3.96607 7.40678 4.06543 7.32317C4.1648 7.23955 4.28642 7.18678 4.41536 7.17133L4.4947 7.16667H14.2174ZM6.34536 2.5C6.52502 2.4999 6.70284 2.53611 6.86816 2.60645C7.03347 2.67679 7.18286 2.77981 7.30736 2.90933L7.38736 3.00067L8.3187 4.16667H12.6654C13.0017 4.16656 13.3257 4.2936 13.5724 4.52233C13.819 4.75106 13.9701 5.06456 13.9954 5.4L13.9987 5.5V5.83333H4.4947C4.08594 5.83333 3.687 5.95857 3.35159 6.19219C3.01618 6.42581 2.7604 6.75659 2.6187 7.14L2.5787 7.25867L1.33203 11.4133V3.83333C1.33192 3.49695 1.45897 3.17296 1.6877 2.9263C1.91642 2.67965 2.22993 2.52856 2.56536 2.50333L2.66536 2.5H6.34536Z" fill="#323232"/>
</svg>
