<svg width="16" height="16" viewBox="0 0 16 16" fill="none" xmlns="http://www.w3.org/2000/svg">
<path d="M14.2174 6.66667C14.2647 6.66667 14.3115 6.67674 14.3546 6.69623C14.3977 6.71571 14.4362 6.74414 14.4675 6.77965C14.4987 6.81516 14.5221 6.85692 14.536 6.90215C14.5499 6.94738 14.554 6.99506 14.548 7.042L14.5367 7.09533L12.61 13.5247C12.5727 13.6492 12.4998 13.76 12.4004 13.8437C12.3009 13.9273 12.1791 13.98 12.05 13.9953L11.972 14H2.66536C2.40503 14.0002 2.15034 13.9242 1.9327 13.7813C1.91459 13.7315 1.90864 13.678 1.91536 13.6253L1.9267 13.5707L3.85603 7.142C3.89329 7.0176 3.96607 6.90678 4.06543 6.82317C4.1648 6.73955 4.28642 6.68678 4.41536 6.67133L4.4947 6.66667H14.2174ZM6.34536 2C6.52502 1.9999 6.70284 2.03611 6.86816 2.10645C7.03347 2.17679 7.18286 2.27981 7.30736 2.40933L7.38736 2.50067L8.3187 3.66667H12.6654C13.0017 3.66656 13.3257 3.7936 13.5724 4.02233C13.819 4.25106 13.9701 4.56456 13.9954 4.9L13.9987 5V5.33333H4.4947C4.08594 5.33333 3.687 5.45857 3.35159 5.69219C3.01618 5.92581 2.7604 6.25659 2.6187 6.64L2.5787 6.75867L1.33203 10.9133V3.33333C1.33192 2.99695 1.45897 2.67296 1.6877 2.4263C1.91642 2.17965 2.22993 2.02856 2.56536 2.00333L2.66536 2H6.34536Z" fill="#FEFEFE"/>
</svg>
