<svg width="18" height="19" viewBox="0 0 18 19" fill="none" xmlns="http://www.w3.org/2000/svg">
<path d="M16.9881 16.3831L11.7709 11.1659C12.5805 10.1193 13.0184 8.83956 13.0184 7.49358C13.0184 5.88242 12.3896 4.37171 11.2526 3.23264C10.1155 2.09358 8.60078 1.4668 6.99163 1.4668C5.38248 1.4668 3.86775 2.09559 2.73069 3.23264C1.59163 4.3697 0.964844 5.88242 0.964844 7.49358C0.964844 9.10273 1.59364 10.6175 2.73069 11.7545C3.86775 12.8936 5.38047 13.5204 6.99163 13.5204C8.33761 13.5204 9.61529 13.0824 10.6619 12.2748L15.8791 17.49C15.8944 17.5053 15.9126 17.5175 15.9326 17.5257C15.9526 17.534 15.974 17.5383 15.9956 17.5383C16.0173 17.5383 16.0387 17.534 16.0587 17.5257C16.0787 17.5175 16.0969 17.5053 16.1122 17.49L16.9881 16.6161C17.0034 16.6008 17.0155 16.5827 17.0238 16.5627C17.0321 16.5427 17.0363 16.5212 17.0363 16.4996C17.0363 16.478 17.0321 16.4565 17.0238 16.4365C17.0155 16.4166 17.0034 16.3984 16.9881 16.3831ZM10.1738 10.6757C9.32199 11.5255 8.19297 11.9936 6.99163 11.9936C5.79029 11.9936 4.66127 11.5255 3.80949 10.6757C2.95971 9.82394 2.49163 8.69492 2.49163 7.49358C2.49163 6.29224 2.95971 5.16122 3.80949 4.31144C4.66127 3.46166 5.79029 2.99358 6.99163 2.99358C8.19297 2.99358 9.324 3.45965 10.1738 4.31144C11.0235 5.16323 11.4916 6.29224 11.4916 7.49358C11.4916 8.69492 11.0235 9.82595 10.1738 10.6757Z" fill="#777777"/>
</svg>
